<?xml version="1.0" encoding="utf-8"?>
<!-- Generator: Adobe Illustrator 24.0.1, SVG Export Plug-In . SVG Version: 6.00 Build 0)  -->
<svg version="1.1" id="Layer_1" xmlns="http://www.w3.org/2000/svg" xmlns:xlink="http://www.w3.org/1999/xlink" x="0px" y="0px"
	 viewBox="0 0 1708.3 1260.5" style="enable-background:new 0 0 1708.3 1260.5;" xml:space="preserve">
<style type="text/css">
	.st0{display:none;fill:#FFFFFF;}
	.st1{fill:#151D4C;}
	.st2{fill:#E7E8E8;}
</style>
<g id="Layer_1_1_">
	<path class="st0" d="M0-259.4L136.8,79.2c262.2-106,518.8-293.4,762.7-557c66.3-71.6,131.4-148.9,194.6-230.6V-96
		C651.5,682,183,936.9,0,1010.8l136.8,338.6c262.2-106,518.8-293.4,762.7-557c66.3-71.6,131.4-148.9,194.6-230.6v612.4
		C651.5,1952.2,183,2207.1,0,2281l136.8,338.6c262.2-106,518.8-293.4,762.7-557c132.4-143.1,260.2-308.4,377.2-487.3
		c117,178.9,244.8,344.2,377.2,487.3c243.9,263.6,500.5,451.1,762.7,557l136.8-338.6c-183-74-651.5-328.8-1094.1-1106.8V561.8
		c63.2,81.7,128.3,158.9,194.6,230.6c243.9,263.6,500.5,451.1,762.7,557l136.8-338.6c-183-74-651.5-328.8-1094.1-1106.8v-612.4
		c63.2,81.7,128.3,158.9,194.6,230.6c243.9,263.6,500.5,451,762.7,557l136.8-338.6c-186.2-75.2-667.7-337.7-1117.1-1147.6
		l-159.7-287.8L1117-1407C667.7-597.1,186.2-334.6,0-259.4z"/>
</g>
<path class="st2" d="M0-259.3L136.8,77.3C399-28,655.6-214.3,899.5-476.4c66.3-71.2,131.4-148,194.6-229.2v608.8
	C651.5,676.6,183,930,0,1003.5l136.8,336.6c262.2-105.3,518.8-291.6,762.7-553.7c66.3-71.2,131.4-148,194.6-229.2v608.8
	C651.5,1939.4,183,2192.8,0,2266.3l136.8,336.6c262.2-105.3,518.8-291.6,762.7-553.7c132.4-142.2,260.2-306.6,377.2-484.5
	c117,177.8,244.8,342.2,377.2,484.5c243.9,262.1,500.5,448.4,762.7,553.7l136.8-336.6c-183-73.5-651.5-326.9-1094.1-1100.4V557.1
	c63.2,81.2,128.3,158,194.6,229.2c243.9,262.1,500.5,448.4,762.7,553.7l136.8-336.6C2370.4,930,1902,676.6,1459.3-96.9v-608.8
	c63.2,81.2,128.3,158,194.6,229.2C1897.8-214.3,2154.4-28,2416.6,77.3l136.8-336.6c-186.2-74.8-667.7-335.7-1117-1140.9
	l-159.7-286.1L1117-1400.2C667.7-595,186.2-334.1,0-259.3z"/>
</svg>
