<?xml version="1.0" encoding="utf-8"?>
<!-- Generator: Adobe Illustrator 24.0.1, SVG Export Plug-In . SVG Version: 6.00 Build 0)  -->
<svg version="1.1" id="Layer_1" xmlns="http://www.w3.org/2000/svg" xmlns:xlink="http://www.w3.org/1999/xlink" x="0px" y="0px"
	 viewBox="0 0 1708.3 1263.4" style="enable-background:new 0 0 1708.3 1263.4;" xml:space="preserve">
<style type="text/css">
	.st0{fill:#E7E8E8;}
</style>
<path class="st0" d="M0-325.7L136.8,10.9C399-94.4,655.6-280.7,899.5-542.8c66.3-71.2,131.4-148,194.6-229.2v608.8
	C651.5,610.2,183,863.6,0,937.1l136.8,336.6C399,1168.4,655.6,982.1,899.5,720c66.3-71.2,131.4-148,194.6-229.2v608.8
	C651.5,1873,183,2126.4,0,2199.9l136.8,336.6c262.2-105.3,518.8-291.6,762.7-553.7c132.4-142.2,260.2-306.6,377.2-484.5
	c117,177.8,244.8,342.2,377.2,484.5c243.9,262.1,500.5,448.4,762.7,553.7l136.8-336.6c-183-73.5-651.5-326.9-1094.1-1100.4V490.7
	c63.2,81.2,128.3,158,194.6,229.2c243.9,262.1,500.5,448.4,762.7,553.7l136.8-336.6c-183-73.5-651.5-326.9-1094.1-1100.4v-608.8
	c63.2,81.2,128.3,158,194.6,229.2c243.9,262.1,500.5,448.4,762.7,553.7l136.8-336.6c-186.2-74.8-667.7-335.7-1117-1140.9
	l-159.7-286.1L1117-1466.6C667.7-661.4,186.2-400.5,0-325.7z"/>
</svg>
