<?xml version="1.0" encoding="utf-8"?>
<!-- Generator: Adobe Illustrator 24.0.1, SVG Export Plug-In . SVG Version: 6.00 Build 0)  -->
<svg version="1.1" xmlns="http://www.w3.org/2000/svg" xmlns:xlink="http://www.w3.org/1999/xlink" x="0px" y="0px"
	 viewBox="0 0 1708.35 1168.96" style="enable-background:new 0 0 1708.35 1168.96;" xml:space="preserve">
<style type="text/css">
	.st0{fill:#231F20;}
	.st1{fill:#0A1F8F;}
	.st2{fill:#FFFFFF;}
	.st3{display:none;fill:#FFFFFF;}
	.st4{fill:#151D4C;}
</style>
<g id="Layer_1">
	<path class="st3" d="M0,937.63l136.81,338.59c262.21-105.96,518.82-293.36,762.7-557c66.27-71.64,131.4-148.87,194.6-230.57v612.38
		C651.46,1879.02,183.02,2133.89,0,2207.84l136.81,338.59c262.21-105.96,518.82-293.36,762.7-557
		c66.27-71.64,131.4-148.87,194.6-230.57v612.38C651.46,3149.23,183.02,3404.1,0,3478.05l136.81,338.59
		c262.21-105.96,518.82-293.36,762.7-557c132.36-143.08,260.17-308.44,377.2-487.32c117.03,178.88,244.84,344.24,377.2,487.32
		c243.89,263.65,500.5,451.05,762.7,557l136.81-338.59c-183.02-73.96-651.46-328.82-1094.12-1106.82v-612.38
		c63.21,81.71,128.33,158.93,194.6,230.57c243.89,263.65,500.5,451.05,762.7,557l136.81-338.59
		c-183.02-73.96-651.46-328.82-1094.12-1106.82V488.64c63.21,81.71,128.33,158.93,194.6,230.57
		c243.89,263.65,500.5,451.05,762.7,557l136.81-338.59c-186.19-75.23-667.74-337.65-1117.05-1147.59l-159.67-287.83l-159.67,287.83
		C667.74,599.97,186.19,862.39,0,937.63z"/>
	<path class="st4" d="M1560.99,0H992.44C581.61,646.67,169.05,869.32,0,937.63l93.47,231.34h260.76
		c186.61-108.9,369.26-259.46,545.29-449.75c66.27-71.64,131.4-148.87,194.6-230.57v612.38c-13.15,23.11-26.32,45.74-39.51,67.94
		h444.2c-13.19-22.2-26.36-44.83-39.51-67.94V488.64c63.21,81.71,128.33,158.93,194.6,230.57
		c176.03,190.29,358.68,340.85,545.29,449.75h260.75l93.47-231.34C2384.38,869.32,1971.82,646.67,1560.99,0z"/>
</g>
<g id="Layer_2">
</g>
</svg>
