<?xml version="1.0" encoding="utf-8"?>
<!-- Generator: Adobe Illustrator 24.0.1, SVG Export Plug-In . SVG Version: 6.00 Build 0)  -->
<svg version="1.1" id="Layer_1" xmlns="http://www.w3.org/2000/svg" xmlns:xlink="http://www.w3.org/1999/xlink" x="0px" y="0px"
	 viewBox="0 0 1708.3 1263.4" style="enable-background:new 0 0 1708.3 1263.4;" xml:space="preserve">
<style type="text/css">
	.st0{fill:#151D4C;}
</style>
<path class="st0" d="M0,937.7l136.8,336.6C399,1169,655.6,982.7,899.5,720.6c66.3-71.2,131.4-148,194.6-229.2v608.8
	C651.5,1873.6,183,2127,0,2200.5l136.8,336.6c262.2-105.3,518.8-291.6,762.7-553.7c66.3-71.2,131.4-148,194.6-229.2V2363
	C651.5,3136.4,183,3389.8,0,3463.3l136.8,336.6c262.2-105.3,518.8-291.6,762.7-553.7c132.4-142.2,260.2-306.6,377.2-484.5
	c117,177.8,244.8,342.2,377.2,484.5c243.9,262.1,500.5,448.4,762.7,553.7l136.8-336.6c-183-73.5-651.5-326.9-1094.1-1100.4v-608.8
	c63.2,81.2,128.3,158,194.6,229.2c243.9,262.1,500.5,448.4,762.7,553.7l136.8-336.6c-183-73.5-651.5-326.9-1094.1-1100.4V491.4
	c63.2,81.2,128.3,158,194.6,229.2c243.9,262.1,500.5,448.4,762.7,553.7l136.8-336.6c-186.2-74.8-667.7-335.7-1117-1140.9
	l-159.7-286.1L1117-203.2C667.7,602,186.2,862.9,0,937.7z"/>
</svg>
