<svg xmlns="http://www.w3.org/2000/svg" viewBox="0 0 841.27 726.94"><defs><style>.cls-1{fill:#b0b3b2;}</style></defs><title>like-05</title><g id="Layer_2" data-name="Layer 2"><g id="like"><path id="stroke" class="cls-1" d="M777.83,63.44h0a216.59,216.59,0,0,0-306.31,0l-50.89,50.89L369.75,63.44a216.59,216.59,0,0,0-306.31,0h0c-84.59,84.58-84.59,221.72,0,306.31l50.89,50.89,306.3,306.3,306.31-306.3,50.89-50.89C862.42,285.16,862.42,148,777.83,63.44Zm-43.35,263-50.89,50.89-263,263-262.95-263-50.89-50.89c-60.54-60.54-60.54-159.06,0-219.6a155.28,155.28,0,0,1,219.6,0l50.89,50.89L420.63,201,464,157.68l50.89-50.89a155.28,155.28,0,0,1,219.6,0C795,167.33,795,265.85,734.48,326.39Z"/><path id="full" class="cls-1 display-none" d="M777.83,63.44h0a216.59,216.59,0,0,0-306.31,0l-50.89,50.89L369.75,63.44a216.59,216.59,0,0,0-306.31,0h0c-84.59,84.58-84.59,221.72,0,306.31l50.89,50.89,306.3,306.3,306.31-306.3,50.89-50.89C862.42,285.16,862.42,148,777.83,63.44Z"/></g></g></svg>
