<?xml version="1.0" encoding="utf-8"?>
<!-- Generator: Adobe Illustrator 24.0.1, SVG Export Plug-In . SVG Version: 6.00 Build 0)  -->
<svg version="1.1" xmlns="http://www.w3.org/2000/svg" xmlns:xlink="http://www.w3.org/1999/xlink" x="0px" y="0px"
	 viewBox="0 0 1091.73 974.71" style="enable-background:new 0 0 1091.73 974.71;" xml:space="preserve">
<style type="text/css">
	.st0{fill:#231F20;}
	.st1{fill:#0A1F8F;}
	.st2{fill:#FFFFFF;}
</style>
<g id="Layer_1">
	<g>
		<path class="st2" d="M501.11-0.12c-160.95,0-320.54,8.36-474.34,24.85L0,27.59v26.92v278.62c0,75.61,12.7,149.76,37.76,220.4
			c24.22,68.26,59.41,131.78,104.6,188.78c44.75,56.45,98.05,104.93,158.4,144.09c61.42,39.86,128.49,68.97,199.34,86.52l7.21,1.79
			l7.21-1.79c70.85-17.56,137.92-46.67,199.34-86.52c60.36-39.17,113.65-87.65,158.4-144.09c45.19-57,80.38-120.51,104.6-188.78
			c25.05-70.63,37.76-144.78,37.76-220.4V55.86V29.02l-26.68-2.94C830.26,8.69,666.47-0.12,501.11-0.12z M984.65,333.13
			c0,295.13-203.21,542.79-477.34,610.71C233.17,875.92,29.96,628.26,29.96,333.13V54.51c150.03-16.08,308.01-24.67,471.15-24.67
			c167.63,0,329.83,9.07,483.54,26.02V333.13z"/>
		<polygon class="st2" points="219.96,671.26 234.51,671.26 234.51,610.12 277.21,610.12 277.21,596.73 234.51,596.73 
			234.51,548.79 280.32,548.79 280.32,535.4 219.96,535.4 		"/>
		<path class="st2" d="M390.08,552.09c-3.56-6.08-8.19-10.77-13.88-14.07c-5.7-3.3-12.62-4.95-20.77-4.95
			c-15.14,0-26.4,5.95-33.77,17.86c-7.38,11.91-11.06,29.37-11.06,52.4c0,10.74,0.81,20.45,2.43,29.11
			c1.62,8.67,4.24,16.05,7.86,22.13c3.62,6.08,8.28,10.77,13.97,14.07c5.69,3.3,12.55,4.95,20.57,4.95
			c15.14,0,26.43-5.95,33.87-17.86c7.44-11.9,11.16-29.37,11.16-52.41c0-10.74-0.84-20.44-2.52-29.11
			C396.26,565.55,393.63,558.17,390.08,552.09z M377.56,646.22c-5.05,9.32-12.42,13.97-22.13,13.97c-5.31,0-9.83-1.55-13.59-4.66
			c-3.75-3.11-6.79-7.25-9.12-12.42c-2.33-5.17-4.05-11.19-5.14-18.05c-1.1-6.86-1.65-14.1-1.65-21.74
			c0-19.28,2.52-33.58,7.57-42.89s12.35-13.97,21.93-13.97c5.43,0,10.03,1.55,13.78,4.66c3.75,3.11,6.79,7.28,9.12,12.52
			s4.04,11.29,5.14,18.15c1.1,6.86,1.65,14.04,1.65,21.54C385.13,622.61,382.6,636.91,377.56,646.22z"/>
		<path class="st2" d="M494.5,596.93c4.46-6.47,6.7-15.07,6.7-25.81c0-7.12-1-13.03-3.01-17.76c-2.01-4.72-4.69-8.54-8.05-11.45
			c-3.37-2.91-7.31-4.98-11.84-6.21c-4.53-1.23-9.32-1.84-14.36-1.84c-4.27,0-8.96,0.23-14.07,0.68c-5.11,0.46-9.8,1.2-14.07,2.23
			v134.51h14.56v-62.11l14.56,2.91l29.11,59.2h16.89l-26.78-54.15l-7.38-7.18C484.11,607.73,490.03,603.4,494.5,596.93z
			 M479.46,592.65c-4.27,4.53-10.09,6.79-17.47,6.79h-11.65V548.4c1.42-0.39,3.52-0.68,6.31-0.87c2.78-0.19,5.46-0.29,8.06-0.29
			c6.99,0,12.26,2.33,15.82,6.99c3.56,4.66,5.34,10.55,5.34,17.66C485.86,581.2,483.73,588.13,479.46,592.65z"/>
		<polygon class="st2" points="558.06,608.18 600.18,608.18 600.18,594.79 558.06,594.79 558.06,548.79 603.87,548.79 603.87,535.4 
			543.51,535.4 543.51,671.26 604.84,671.26 604.84,657.87 558.06,657.87 		"/>
		<path class="st2" d="M648.02,540.93c-6.54,5.24-9.8,13.3-9.8,24.17c0,6.73,1.29,12.49,3.88,17.27c2.59,4.79,5.82,9.03,9.71,12.71
			c3.88,3.69,8.05,7.05,12.52,10.09c4.46,3.04,8.64,6.15,12.52,9.32c3.88,3.17,7.12,6.63,9.71,10.38c2.59,3.75,3.88,8.15,3.88,13.2
			c0,7.64-2.27,13.23-6.79,16.79c-4.53,3.56-10.42,5.34-17.66,5.34c-5.7,0-10.77-0.74-15.24-2.23c-4.46-1.49-7.93-3.07-10.38-4.76
			l-5.05,13.39c2.97,1.81,6.95,3.43,11.94,4.85c4.98,1.42,11.35,2.13,19.12,2.13c12.29,0,21.8-3.23,28.53-9.71
			c6.73-6.47,10.09-15.4,10.09-26.78c0-6.73-1.29-12.55-3.88-17.47c-2.59-4.92-5.82-9.32-9.7-13.2s-8.06-7.41-12.52-10.58
			c-4.46-3.17-8.64-6.31-12.52-9.41s-7.12-6.41-9.71-9.9c-2.59-3.49-3.88-7.5-3.88-12.03c0-5.17,1.68-9.48,5.05-12.91
			c3.36-3.43,8.54-5.14,15.53-5.14c5.69,0,10.71,0.58,15.04,1.75c4.33,1.17,7.67,2.46,10,3.88l4.66-12.81
			c-3.11-1.81-7.18-3.3-12.23-4.46c-5.05-1.17-10.8-1.75-17.27-1.75C663.06,533.07,654.55,535.69,648.02,540.93z"/>
		<polygon class="st2" points="762.63,671.26 777.19,671.26 777.19,548.79 810.57,548.79 810.57,535.4 729.25,535.4 729.25,548.79 
			762.63,548.79 		"/>
		<path class="st2" d="M1086.82,34.37c-3.27-3.27-7.28-4.91-12.02-4.91c-4.69,0-8.68,1.65-11.98,4.95c-3.3,3.3-4.95,7.29-4.95,11.98
			c0,4.69,1.65,8.68,4.95,11.98c3.3,3.3,7.29,4.95,11.98,4.95c4.68,0,8.68-1.65,11.98-4.95c3.3-3.3,4.95-7.29,4.95-11.98
			C1091.73,41.65,1090.09,37.65,1086.82,34.37z M1085.14,56.77c-2.85,2.88-6.3,4.31-10.34,4.31c-4.05,0-7.51-1.44-10.38-4.31
			c-2.88-2.88-4.31-6.34-4.31-10.38c0-4.05,1.42-7.49,4.27-10.34c2.85-2.85,6.32-4.27,10.42-4.27c4.05,0,7.49,1.42,10.34,4.27
			c2.85,2.85,4.27,6.3,4.27,10.34C1089.41,50.44,1087.99,53.9,1085.14,56.77z"/>
		<path class="st2" d="M1080.59,46.91c1.2-0.98,1.8-2.41,1.8-4.27c0-1.76-0.6-3.18-1.8-4.27c-1.2-1.09-2.65-1.64-4.35-1.64h-7.91
			v19.41h2.56v-7.67h3.51l5.03,7.67h3.19l-5.19-7.75C1078.34,48.39,1079.39,47.89,1080.59,46.91z M1070.89,46.15v-7.19h5.35
			c0.9,0,1.72,0.36,2.44,1.08c0.72,0.72,1.08,1.58,1.08,2.6c0,0.96-0.37,1.78-1.12,2.48c-0.75,0.69-1.54,1.04-2.4,1.04H1070.89z"/>
		<path class="st2" d="M276.91,406.43c-0.01-30.07-16.95-44.08-30.19-50.15c11.09-5.53,27.1-21.91,27.09-46.9
			c-0.01-38.6-24.96-62.64-67.76-61.03c-29.36,1.07-58.71,2.3-88.05,3.68c0,73.1,0,146.2,0,219.29c30.59-0.01,61.19-0.02,91.78-0.03
			C248.89,471.33,276.92,448.55,276.91,406.43z M160.79,288.64c13.96-0.48,27.92-0.94,41.88-1.37c18.17-0.57,28.33,9.54,28.34,24.95
			c0,15.41-10.16,25.99-28.33,26.38c-13.96,0.31-27.92,0.64-41.88,0.99C160.79,322.61,160.79,305.62,160.79,288.64z M205.46,432.47
			c-14.89,0.1-29.77,0.2-44.66,0.32c0-18.12,0-36.24-0.01-54.36c14.88-0.27,29.77-0.51,44.65-0.75
			c19.4-0.31,28.64,11.83,28.65,26.94C234.1,419.72,224.86,432.35,205.46,432.47z"/>
		<path class="st2" d="M478.35,471.24c0-13.26,0-26.53,0-39.79c-33.16,0.03-66.33,0.09-99.49,0.18
			c-0.01-62.62-0.02-125.23-0.03-187.85c-14.27,0.23-28.55,0.5-42.82,0.8c0.01,75.56,0.03,151.11,0.04,226.67
			C383.49,471.25,430.92,471.25,478.35,471.24z"/>
		<path class="st2" d="M602.17,473.17c44.97-0.04,80.7-31.6,80.71-79.66c0.01-49.71,0.02-99.42,0.02-149.12
			c-14.17-0.28-28.34-0.53-42.51-0.74c-0.01,49.34-0.01,98.67-0.02,148.01c0,26.21-15.1,41.83-38.2,41.79
			c-23.1-0.04-37.88-15.77-37.88-42.08c0-49.51,0.01-99.01,0.01-148.52c-14.27-0.08-28.55-0.13-42.82-0.15
			c0,50.07,0,100.15,0,150.22C521.47,441.4,557.2,473.18,602.17,473.17z"/>
		<path class="st2" d="M741.68,386.29c6.13,66.56,46.95,84.78,89.37,84.76c35.17,0.01,54.26-10.97,74.09-30.69
			c-9.85-9.68-19.7-19.42-29.56-29.21c-12.35,12.29-22.82,18.28-44.15,18.12c-26.52-0.17-41.75-17.93-42.61-42.44
			c-0.01,0-0.03,0-0.04,0c0-6.81,0-13.63,0-20.44c0.01,0,0.03,0,0.04,0c-0.03-0.73-0.04-1.47-0.04-2.21
			c40.66,0.64,81.31,1.42,121.96,2.34c0-7.23,0-14.47,0-21.7c0-53.34-30.67-94.56-84.9-96.74c-50.5-1.96-84.94,34.15-84.95,99.64
			c0,1.99,0.04,3.95,0.09,5.87C741.11,360.62,741.68,386.29,741.68,386.29z M793.28,308.83c5.24-11.72,16.09-20.2,32.55-19.7
			c16.46,0.51,27.31,9.59,32.54,21.45c2.99,7.27,4.11,12.59,4.49,21.29c-24.69-0.65-49.38-1.22-74.08-1.73
			C789.16,321.35,790.29,316.02,793.28,308.83z"/>
	</g>
</g>
<g id="Layer_2">
</g>
</svg>
