<?xml version="1.0" encoding="utf-8"?>
<!-- Generator: Adobe Illustrator 24.0.1, SVG Export Plug-In . SVG Version: 6.00 Build 0)  -->
<svg version="1.1" xmlns="http://www.w3.org/2000/svg" xmlns:xlink="http://www.w3.org/1999/xlink" x="0px" y="0px"
	 viewBox="0 0 2890.38 557.43" style="enable-background:new 0 0 2890.38 557.43;" xml:space="preserve">
<style type="text/css">
	.st0{fill:#231F20;}
	.st1{fill:#0A1F8F;}
	.st2{fill:#FFFFFF;}
</style>
<g id="Layer_1">
	<g>
		<g>
			<path class="st2" d="M1781.16,143.45h104.92v23.28h-79.62v83.33h74.22v23.28h-74.22v106.27h-25.3V143.45z"/>
			<path class="st2" d="M1938.72,261.54c0-40.03,6.41-70.4,19.23-91.09c12.82-20.69,32.39-31.04,58.7-31.04
				c14.17,0,26.2,2.87,36.1,8.6c9.89,5.74,17.93,13.89,24.12,24.46c6.18,10.58,10.74,23.4,13.66,38.46
				c2.92,15.07,4.39,31.94,4.39,50.61c0,40.04-6.47,70.4-19.4,91.09c-12.94,20.7-32.56,31.04-58.87,31.04
				c-13.95,0-25.87-2.87-35.76-8.6c-9.9-5.74-18-13.88-24.29-24.46c-6.3-10.57-10.85-23.39-13.66-38.46
				C1940.12,297.08,1938.72,280.21,1938.72,261.54z M1965.37,261.54c0,13.27,0.95,25.87,2.87,37.79
				c1.91,11.92,4.89,22.38,8.94,31.38c4.05,9,9.33,16.19,15.86,21.59c6.52,5.4,14.39,8.1,23.62,8.1c16.87,0,29.69-8.1,38.46-24.29
				c8.77-16.19,13.16-41.04,13.16-74.56c0-13.04-0.96-25.52-2.87-37.45c-1.91-11.92-4.89-22.44-8.94-31.54
				c-4.05-9.11-9.34-16.36-15.86-21.76c-6.53-5.4-14.51-8.1-23.95-8.1c-16.65,0-29.35,8.1-38.12,24.29
				C1969.75,203.17,1965.37,228.03,1965.37,261.54z"/>
			<path class="st2" d="M2156.32,145.82c7.42-1.8,15.57-3.09,24.46-3.88c8.88-0.79,17.04-1.18,24.46-1.18
				c8.77,0,17.09,1.07,24.97,3.2c7.87,2.14,14.73,5.74,20.58,10.8c5.85,5.06,10.51,11.7,14,19.91c3.48,8.21,5.23,18.5,5.23,30.87
				c0,18.67-3.88,33.63-11.64,44.87c-7.76,11.25-18.05,18.78-30.87,22.6l12.82,12.48l46.56,94.13h-29.35l-50.61-102.9l-25.3-5.06
				v107.96h-25.3V145.82z M2181.63,254.79h20.24c12.82,0,22.94-3.93,30.36-11.81c7.42-7.87,11.13-19.91,11.13-36.1
				c0-12.37-3.09-22.61-9.28-30.7c-6.19-8.1-15.35-12.15-27.5-12.15c-4.5,0-9.17,0.17-14,0.51c-4.84,0.34-8.49,0.84-10.97,1.52
				V254.79z"/>
			<path class="st2" d="M2343.57,143.45h104.92v23.28h-79.62v79.96h73.21v23.28h-73.21v86.37h81.31v23.28h-106.61V143.45z"/>
			<path class="st2" d="M2511.91,348.24c4.27,2.92,10.29,5.68,18.05,8.27c7.76,2.59,16.58,3.88,26.48,3.88
				c12.59,0,22.83-3.09,30.7-9.28c7.87-6.18,11.81-15.91,11.81-29.18c0-8.77-2.25-16.42-6.75-22.94
				c-4.5-6.52-10.12-12.54-16.87-18.05c-6.75-5.51-14-10.91-21.76-16.19c-7.76-5.28-15.01-11.13-21.76-17.54
				c-6.75-6.41-12.37-13.77-16.87-22.1c-4.5-8.32-6.75-18.33-6.75-30.03c0-18.89,5.68-32.9,17.04-42
				c11.35-9.11,26.15-13.66,44.36-13.66c11.24,0,21.25,1.01,30.03,3.04c8.77,2.02,15.86,4.61,21.26,7.76l-8.1,22.27
				c-4.05-2.47-9.84-4.72-17.38-6.75c-7.54-2.02-16.25-3.04-26.15-3.04c-12.15,0-21.14,2.98-26.99,8.94
				c-5.85,5.96-8.77,13.44-8.77,22.44c0,7.88,2.25,14.84,6.75,20.92c4.5,6.07,10.12,11.81,16.87,17.21
				c6.75,5.4,14,10.85,21.76,16.36c7.76,5.51,15.01,11.64,21.76,18.39c6.75,6.75,12.37,14.4,16.87,22.94
				c4.5,8.55,6.75,18.67,6.75,30.36c0,19.8-5.85,35.31-17.54,46.56c-11.7,11.25-28.23,16.87-49.59,16.87
				c-13.49,0-24.58-1.24-33.23-3.71c-8.66-2.47-15.58-5.28-20.75-8.44L2511.91,348.24z"/>
			<path class="st2" d="M2807.79,166.73h-58.03v212.89h-25.3V166.73h-58.03v-23.28h141.36V166.73z"/>
		</g>
	</g>
	<g>
		<path class="st2" d="M868.89,248.54c12.82-6.39,31.33-25.33,31.32-54.22c-0.01-44.63-28.86-72.41-78.34-70.56
			c-33.94,1.24-67.87,2.66-101.79,4.26c0,84.5,0,169.01,0,253.51c35.37-0.01,70.74-0.03,106.11-0.04
			c45.22,0.04,77.62-26.29,77.61-74.99C903.78,271.75,884.2,255.56,868.89,248.54z M769.55,170.35c16.14-0.56,32.27-1.09,48.41-1.58
			c21-0.66,32.75,11.03,32.76,28.84c0,17.82-11.74,30.04-32.75,30.49c-16.14,0.36-32.28,0.74-48.42,1.14
			C769.55,209.61,769.55,189.98,769.55,170.35z M821.19,336.61c-17.21,0.11-34.42,0.24-51.63,0.37c0-20.95,0-41.9-0.01-62.85
			c17.21-0.31,34.41-0.59,51.62-0.86c22.43-0.36,33.11,13.68,33.12,31.14C854.3,321.88,843.62,336.48,821.19,336.61z"/>
		<path class="st2" d="M1021.62,118.5c-16.5,0.27-33,0.57-49.5,0.92c0.02,87.35,0.03,174.69,0.05,262.04
			c54.83-0.01,109.67-0.02,164.5-0.02c0-15.33,0-30.66,0-46c-38.34,0.03-76.68,0.1-115.01,0.21
			C1021.64,263.27,1021.63,190.88,1021.62,118.5z"/>
		<path class="st2" d="M1323.97,289.43c0,30.3-17.45,48.35-44.16,48.32c-26.71-0.05-43.8-18.23-43.79-48.64
			c0-57.23,0.01-114.46,0.01-171.7c-16.5-0.1-33-0.15-49.51-0.17c0,57.89,0,115.77,0,173.66c0,56.04,41.3,92.78,93.29,92.77
			c51.98-0.05,93.29-36.54,93.3-92.09c0.01-57.46,0.02-114.93,0.03-172.39c-16.38-0.33-32.76-0.61-49.14-0.86
			C1323.98,175.36,1323.98,232.4,1323.97,289.43z"/>
		<path class="st2" d="M1636.53,235.28c0-61.66-35.45-109.32-98.15-111.84c-58.38-2.27-98.19,39.48-98.2,115.19
			c0,2.3,0.04,4.56,0.1,6.79c0.15,8.14,0.81,37.82,0.81,37.81c7.08,76.95,54.28,98.01,103.31,97.98
			c40.66,0.01,62.72-12.68,85.65-35.48c-11.39-11.19-22.78-22.45-34.17-33.77c-14.28,14.21-26.39,21.13-51.04,20.95
			c-30.66-0.2-48.26-20.72-49.25-49.06c-0.02,0-0.03,0-0.05,0c0-7.88,0-15.75,0-23.63c0.02,0,0.03,0,0.05,0
			c-0.03-0.85-0.05-1.7-0.05-2.56c47,0.74,94,1.64,140.99,2.71C1636.53,252.01,1636.53,243.64,1636.53,235.28z M1495.54,218.32
			c0.43-10.16,1.73-16.32,5.19-24.63c6.06-13.55,18.6-23.36,37.63-22.78c19.03,0.58,31.57,11.08,37.62,24.8
			c3.46,8.41,4.76,14.56,5.19,24.61C1552.64,219.57,1524.09,218.91,1495.54,218.32z"/>
	</g>
	<g>
		<g>
			<path class="st2" d="M2890.38,94.67c0,4.31-1.52,7.98-4.55,11.01c-3.03,3.03-6.71,4.55-11.01,4.55c-4.31,0-7.98-1.52-11.01-4.55
				c-3.03-3.03-4.55-6.7-4.55-11.01c0-4.31,1.52-7.98,4.55-11.01c3.03-3.03,6.7-4.55,11.01-4.55c4.35,0,8.04,1.5,11.05,4.51
				C2888.87,86.63,2890.38,90.31,2890.38,94.67z M2884.32,104.21c2.62-2.64,3.93-5.82,3.93-9.54c0-3.72-1.31-6.89-3.93-9.51
				c-2.62-2.62-5.79-3.93-9.51-3.93c-3.77,0-6.96,1.31-9.58,3.93c-2.62,2.62-3.93,5.79-3.93,9.51c0,3.72,1.32,6.9,3.96,9.54
				s5.82,3.96,9.54,3.96C2878.53,108.18,2881.7,106.85,2884.32,104.21z M2882.01,103.62h-2.94l-4.62-7.05h-3.23v7.05h-2.35V85.79
				h7.27c1.57,0,2.9,0.5,4,1.5c1.1,1,1.65,2.31,1.65,3.93c0,1.71-0.55,3.02-1.65,3.93c-1.1,0.91-2.07,1.36-2.9,1.36L2882.01,103.62z
				 M2879.37,91.22c0-0.93-0.33-1.73-0.99-2.39c-0.66-0.66-1.41-0.99-2.24-0.99h-4.92v6.61h4.92c0.78,0,1.52-0.32,2.2-0.95
				C2879.02,92.86,2879.37,92.1,2879.37,91.22z"/>
		</g>
	</g>
	<g>
		<path class="st2" d="M568.08,15.14C476.94,5.1,382.27,0,286.69,0C193.66,0,101.41,4.83,12.51,14.36L0,15.7v173.84
			c0,43.38,7.29,85.92,21.66,126.44c13.89,39.16,34.08,75.6,60.01,108.3c51.83,65.37,124.72,112.36,205.24,132.31l3.37,0.83
			l3.37-0.83c80.52-19.95,153.41-66.94,205.24-132.31c25.93-32.7,46.12-69.14,60.01-108.3c14.37-40.52,21.66-83.06,21.66-126.44
			V16.52L568.08,15.14z M552.54,189.54c0,40.18-6.75,79.57-20.05,117.08c-12.86,36.25-31.55,69.98-55.56,100.26
			c-47.28,59.63-113.45,102.74-186.65,121.67c-73.2-18.93-139.38-62.04-186.65-121.67c-24.01-30.28-42.7-64.01-55.56-100.26
			c-13.3-37.5-20.05-76.9-20.05-117.08V40.91c84.04-8.56,170.99-12.89,258.67-12.89c90.21,0,179.57,4.58,265.85,13.63V189.54z"/>
		<path class="st2" d="M192.33,190.82l10.5,25.97c30.53-12.34,55.5-37.4,73.44-60.56v47.12c-33.96,59.68-69.9,79.24-83.94,84.91
			l10.5,25.97c30.53-12.34,55.5-37.4,73.44-60.56v47.12c-33.96,59.68-69.9,79.24-83.94,84.91l10.5,25.97
			c39.52-15.97,69.75-53.26,87.42-80.16c8.98,13.74,18.8,26.44,28.96,37.43c18.71,20.23,38.4,34.6,58.51,42.73l10.5-25.97
			c-14.04-5.67-49.98-25.23-83.94-84.91v-46.98c4.85,6.27,9.84,12.19,14.93,17.69c18.71,20.23,38.4,34.6,58.51,42.73l10.5-25.97
			c-14.04-5.67-49.98-25.23-83.94-84.91v-46.98c4.85,6.27,9.85,12.19,14.93,17.69c18.71,20.23,38.4,34.6,58.51,42.73l10.5-25.97
			c-14.28-5.77-51.23-25.9-85.69-88.04L290.28,80.7l-12.25,22.08C243.56,164.92,206.62,185.05,192.33,190.82z"/>
	</g>
</g>
<g id="Layer_2">
</g>
</svg>
