<?xml version="1.0" encoding="utf-8"?>
<!-- Generator: Adobe Illustrator 24.0.1, SVG Export Plug-In . SVG Version: 6.00 Build 0)  -->
<svg version="1.1" xmlns="http://www.w3.org/2000/svg" xmlns:xlink="http://www.w3.org/1999/xlink" x="0px" y="0px"
	 viewBox="0 0 321.64 543.46" style="enable-background:new 0 0 321.64 543.46;" xml:space="preserve">
<style type="text/css">
	.st0{fill:#231F20;}
	.st1{fill:#0A1F8F;}
	.st2{fill:#FFFFFF;}
	.st3{fill:#B1B2B2;}
	.st4{display:none;fill:#FFFFFF;}
	.st5{fill:#151D4C;}
</style>
<g id="Layer_1">
	<g>
		<path class="st3" d="M0,180.81l17.23,42.65c33.03-13.35,65.35-36.95,96.07-70.16c8.35-9.02,16.55-18.75,24.51-29.04v77.14
			C82.06,299.39,23.05,331.5,0,340.81l17.23,42.65c33.03-13.35,65.35-36.95,96.07-70.16c8.35-9.02,16.55-18.75,24.51-29.04v77.14
			C82.06,459.39,23.05,491.5,0,500.81l17.23,42.65c33.03-13.35,65.35-36.95,96.07-70.16c16.67-18.02,32.77-38.85,47.51-61.38
			c14.74,22.53,30.84,43.36,47.51,61.38c30.72,33.21,63.04,56.82,96.07,70.16l17.23-42.65c-23.05-9.32-82.06-41.42-137.82-139.42
			v-77.14c7.96,10.29,16.17,20.02,24.51,29.04c30.72,33.21,63.04,56.82,96.07,70.16l17.23-42.65
			c-23.05-9.32-82.06-41.42-137.82-139.42v-77.14c7.96,10.29,16.17,20.02,24.51,29.04c30.72,33.21,63.04,56.82,96.07,70.16
			l17.23-42.65c-23.45-9.48-84.11-42.53-140.71-144.55L160.82,0l-20.11,36.26C84.11,138.28,23.45,171.33,0,180.81z"/>
	</g>
</g>
<g id="Layer_2">
</g>
</svg>
